<?xml version="1.0" encoding="utf-8"?>
<!-- Generator: Adobe Illustrator 14.0.0, SVG Export Plug-In . SVG Version: 6.00 Build 43363)  -->
<!DOCTYPE svg PUBLIC "-//W3C//DTD SVG 1.1//EN" "http://www.w3.org/Graphics/SVG/1.1/DTD/svg11.dtd">
<svg version="1.1"
	 id="svg2" xmlns:osb="http://www.openswatchbook.org/uri/2009/osb" xmlns:ns1="http://sozi.baierouge.fr" inkscape:version="0.48.0 r9654" xmlns:inkscape="http://www.inkscape.org/namespaces/inkscape" sodipodi:docname="tekniklogga.svg" xmlns:sodipodi="http://sodipodi.sourceforge.net/DTD/sodipodi-0.dtd" xmlns:cc="http://creativecommons.org/ns#" xmlns:dc="http://purl.org/dc/elements/1.1/" xmlns:svg="http://www.w3.org/2000/svg" xmlns:rdf="http://www.w3.org/1999/02/22-rdf-syntax-ns#"
	 xmlns="http://www.w3.org/2000/svg" xmlns:xlink="http://www.w3.org/1999/xlink" x="0px" y="0px" width="800px" height="600px"
	 viewBox="0 0 800 600" enable-background="new 0 0 800 600" xml:space="preserve">
<sodipodi:namedview  inkscape:document-units="px" inkscape:pageopacity="0.0" inkscape:window-width="1280" inkscape:cy="675.39314" inkscape:cx="207.89597" showgrid="false" inkscape:window-x="0" inkscape:zoom="0.43838424" inkscape:pageshadow="2" bordercolor="#666666" inkscape:window-height="752" pagecolor="#ffffff" inkscape:current-layer="layer1" inkscape:window-y="0" borderopacity="1.0" id="base" inkscape:window-maximized="0">
	</sodipodi:namedview>
<g id="layer1" inkscape:groupmode="layer" inkscape:label="Layer 1">
	
		<path id="path2472" sodipodi:nodetypes="ccccccccccccccccc" inkscape:connector-curvature="0" fill="#4D4D4D" stroke="#000000" stroke-width="1.8332" d="
		M393.389,327.13L404.12,305.4l1.692-32.125l17.076-5.476l-47.309-35.958l0.758-28.764l-18.567-2.182l-1.07,40.608l19.013,17.432
		l-3.764,14.293l-24.111,15.45l-6.613,26.072l29.365,10.086l1.614,3.005l-3.99,213.12l16.311,0.288L393.389,327.13z"/>
	
		<path id="path2474" sodipodi:nodetypes="ccccccccccccccc" inkscape:connector-curvature="0" fill="#4D4D4D" stroke="#000000" stroke-width="1.8332" d="
		M444.989,545.899l5.307-225.739l-0.556-11.019l-15.206-1.248l0.514-51.628l-47.509-28.343l-0.289-21.172l98.18,0.894l-3.697,43.925
		l-12.223,14.07l26.803,43.036l-0.378,14.381l-22.085,2.806l-11.073,219.663L444.989,545.899z"/>
	
		<path id="path2470" sodipodi:nodetypes="cccccscccc" inkscape:connector-curvature="0" opacity="0.7897" fill="#00006E" stroke="#FFFFFF" stroke-width="1.8332" enable-background="new    " d="
		M508.187,341.373c0,0-53.96,21.438-192.125-4.215c-1.469-8.504,0.942-37.285,0.942-37.285l12.798-3.755
		c0,0,8.06-173.229,11.147-187.71c-1.031-18.82,38.009-61.216,78.615-59.73c54.115,1.984,78.339,54.239,77.229,57.062
		c5.302,16.539,1.781,196.906,1.781,196.906l10.675,3.567l-1.062,35.155L508.187,341.373z"/>
	
		<radialGradient id="path2991_1_" cx="342.0254" cy="120.2808" r="91.144" gradientTransform="matrix(-0.0253 1.2347 2.2054 0.0451 163.0198 -367.7231)" gradientUnits="userSpaceOnUse">
		<stop  offset="0" style="stop-color:#FFFFFF"/>
		<stop  offset="1" style="stop-color:#FFFFFF;stop-opacity:0"/>
	</radialGradient>
	<path id="path2991" sodipodi:nodetypes="cccccscccc" inkscape:connector-curvature="0" fill="url(#path2991_1_)" d="
		M507.021,340.641c0,0-52.966,21.282-188.566-4.127c-1.44-8.438,0.935-36.99,0.935-36.99l12.562-3.73
		c0,0,7.959-171.857,10.993-186.221c-1.006-18.671,37.324-60.747,77.174-59.28c53.111,1.953,76.874,53.787,75.78,56.589
		c5.2,16.406,1.696,195.348,1.696,195.348l10.475,3.536l-1.053,34.878L507.021,340.641z"/>
	
		<path id="path2480" sodipodi:nodetypes="cscczcc" inkscape:connector-curvature="0" opacity="0.5952" fill="#CCCCCC" fill-opacity="0.6224" stroke="#CCCCCC" stroke-width="1.8332" stroke-linecap="round" stroke-linejoin="round" enable-background="new    " d="
		M328.522,299.027c0,0-3.484,0.284-5.094,0.752l-5.127,1.495c0,0,93.409,19.069,191.096,6.403l-1.492-0.596
		c-1.708-0.684-5.589-1.864-6.776-2.346l-172.611-5.709L328.522,299.027z"/>
</g>
</svg>
